# AST/ASF file generated using VICON BodyLanguage
# -----------------------------------------------
:version 1.10
:name VICON
:units
  mass 1.0
  length 0.45
  angle deg
:documentation
   .ast/.asf automatically generated from VICON data using
   VICON BodyBuilder and BodyLanguage model FoxedUp or BRILLIANT.MOD
:root
   order TX TY TZ RX RY RZ
   axis XYZ
   position 0 0 0  
   orientation 0 0 0 
:bonedata
  begin
     id 1 
     name lhipjoint
     direction 0.521689 -0.742065 0.420928 
     length 2.47002 
     axis 0 0 0  XYZ
  end
  begin
     id 2 
     name lfemur
     direction 0.34202 -0.939693 0  
     length 7.24654  
     axis 0 0 20  XYZ
    dof rx ry rz
    limits (-160.0 20.0)
           (-70.0 70.0)
           (-60.0 70.0)
  end
  begin
     id 3 
     name ltibia
     direction 0.34202 -0.939693 0   
     length 8.04849   
     axis 0 0 20   XYZ
    dof rx
    limits (-10.0 170.0)
  end
  begin
     id 4 
     name lfoot
     direction 0.0745411 -0.2048 0.975961   
     length 1.72367   
     axis -90 7.62852e-016 20   XYZ
    dof rx rz
    limits (-45.0 90.0)
           (-70.0 20.0)
  end
  begin
     id 5 
     name ltoes
     direction 1.53556e-011 -4.21901e-011 1   
     length 0.87311   
     axis -90 7.62852e-016 20   XYZ
    dof rx
    limits (-90.0 20.0)
  end
  begin
     id 6 
     name rhipjoint
     direction -0.52849 -0.738415 0.418857   
     length 2.48223  
     axis 0 0 0  XYZ 
  end
  begin
     id 7 
     name rfemur
     direction -0.34202 -0.939693 0   
     length 7.15571   
     axis 0 0 -20   XYZ
    dof rx ry rz
    limits (-160.0 20.0)
           (-70.0 70.0)
           (-70.0 60.0)
  end
  begin
     id 8 
     name rtibia
     direction -0.34202 -0.939693 0   
     length 7.81659   
     axis 0 0 -20   XYZ
    dof rx
    limits (-10.0 170.0)
 end
 begin
     id 9 
     name rfoot
     direction -0.0917348 -0.252039 0.963359   
     length 1.84382  
     axis -90 -7.62852e-016 -20   XYZ
    dof rx rz
    limits (-45.0 90.0)
           (-20.0 70.0)
  end
  begin
     id 10 
     name rtoes
     direction -1.53551e-011 -4.21879e-011 1   
     length 0.927771   
     axis -90 -7.62852e-016 -20   XYZ
    dof rx
    limits (-90.0 20.0)
  end
  begin
     id 11 
     name lowerback
     direction 0.00583058 0.999822 0.0179296   
     length 2.1429   
     axis 0 0 0   XYZ
    dof rx ry rz
    limits (-20.0 45.0)
           (-30.0 30.0)
           (-30.0 30.0)
  end
  begin
     id 12 
     name upperback
     direction -0.0137999 0.999752 -0.0175071   
     length 2.14252   
     axis 0 0 0   XYZ
    dof rx ry rz
    limits (-20.0 45.0)
           (-30.0 30.0)
           (-30.0 30.0)
  end
  begin
     id 13 
     name thorax
     direction -0.0158036 0.99955 -0.0254909   
     length 2.1383   
     axis 0 0 0   XYZ
    dof rx ry rz
    limits (-20.0 45.0)
           (-30.0 30.0)
           (-30.0 30.0)
  end
  begin
     id 14 
     name lowerneck
     direction -0.0101179 0.999403 -0.0330262   
     length 1.65808   
     axis 0 0 0   XYZ
    dof rx ry rz
    limits (-20.0 45.0)
           (-30.0 30.0)
           (-30.0 30.0)
  end
  begin
     id 15 
     name upperneck
     direction 0.0497734 0.995978 -0.074501   
     length 1.5897   
     axis 0 0 0   XYZ
    dof rx ry rz
    limits (-20.0 45.0)
           (-30.0 30.0)
           (-30.0 30.0)
  end
  begin
     id 16
     name head
     direction 0.0189524 0.999519 -0.0245438  
     length 1.74024  
     axis 0 0 0   XYZ
    dof rx ry rz
    limits (-20.0 45.0)
           (-30.0 30.0)
           (-30.0 30.0)
  end
  begin
     id 17 
     name lclavicle
     direction 0.945604 0.324422 0.0241537  
     length 3.59089  
     axis 0 0 0   XYZ
    dof ry rz
    limits (-20.0 10.0)
           (0.0 20.0)
  end
  begin
     id 18 
     name lhumerus
     direction 1 -4.48964e-011 -2.63524e-027   
     length 5.2391   
     axis 180 -30 -90   XYZ
    dof rx ry rz
    limits (-60.0 90.0)
           (-90.0 90.0)
           (-90.0 90.0)
  end
  begin
     id 19
     name lradius
     direction 1 -4.48969e-011 3.86978e-028   
     length 3.31467   
     axis 180 -30 -90   XYZ
    dof rx
    limits (-10.0 170.0)
  end
  begin
     id 20
     name lwrist
     direction 1 -4.48963e-011 7.20928e-028   
     length 1.65734   
     axis -5.52449e-016 90 90   XYZ
    dof ry
    limits (-180.0 0.0)
 end
  begin
     id 21 
     name lhand
     direction 1 -4.48964e-011 1.44186e-027   
     length 0.9659   
     axis -9.20027e-016 90 90   XYZ
    dof rx rz
    limits (-90.0 90.0)
           (-45.0 45.0)
  end
  begin
     id 22 
     name lfingers
     direction 1 -4.48965e-011 2.88371e-027   
     length 0.778733   
     axis -1.84005e-015 90 90   XYZ
    dof rx
    limits (0.0 90.0)
  end
  begin
     id 23
     name lthumb
     direction 0.707107 -6.34931e-011 0.707107   
     length 1.11811   
     axis -90 45 2.85299e-015   XYZ
    dof rx rz
    limits (-45.0 45.0)
           (-45.0 45.0)
  end
  begin
     id 24 
     name rclavicle
     direction -0.923762 0.370785 0.0958234   
     length 3.54196  
     axis 0 0 0   XYZ 
    dof ry rz
    limits (-10.0 20.0)
           (-20.0 0.0)
  end
  begin
     id 25 
     name rhumerus
     direction -1 -4.48966e-011 1.18702e-017  
     length 5.30252   
     axis 180 30 90   XYZ
    dof rx ry rz
    limits (-90.0 60.0)
           (-90.0 90.0)
           (-90.0 90.0)
  end
  begin
     id 26 
     name rradius
     direction -1 -4.48966e-011 4.46736e-027   
     length 3.67875   
     axis 180 30 90   XYZ
    dof rx
    limits (-10.0 170.0)
  end
  begin
     id 27 
     name rwrist
     direction -1 -4.48966e-011 7.20928e-028   
     length 1.83937   
     axis -5.52449e-016 -90 -90   XYZ
    dof ry
    limits (-180.0 0.0)
  end
  begin
     id 28
     name rhand
     direction -1 -4.48973e-011 1.44186e-027   
     length 0.594811   
     axis -9.20027e-016 -90 -90   XYZ
    dof rx rz
    limits (-90.0 90.0)
           (-45.0 45.0)
  end
  begin
     id 29
     name rfingers
     direction -1 -4.48963e-011 2.88371e-027   
     length 0.479552   
     axis -1.84005e-015 -90 -90   XYZ
    dof rx
    limits (0.0 90.0)
  end
  begin
     id 30
     name rthumb
     direction -0.707107 -6.34932e-011 0.707107   
     length 0.688544   
     axis -90 -45 -2.85299e-015   XYZ
    dof rx rz
    limits (-45.0 45.0)
           (-45.0 45.0)
  end
:hierarchy
  begin
    root lhipjoint rhipjoint lowerback
    lhipjoint lfemur
    lfemur ltibia
    ltibia lfoot
    lfoot ltoes
    rhipjoint rfemur
    rfemur rtibia
    rtibia rfoot
    rfoot rtoes
    lowerback upperback
    upperback thorax
    thorax lowerneck lclavicle rclavicle
    lowerneck upperneck
    upperneck head
    lclavicle lhumerus
    lhumerus lradius
    lradius lwrist
    lwrist lhand lthumb
    lhand lfingers
    rclavicle rhumerus
    rhumerus rradius
    rradius rwrist
    rwrist rhand rthumb
    rhand rfingers
  end

#!OML:ASF E:\acrobat2\Project_11_07_03\Capture day 1\Session 1\Acrobat.ASF
:FULLY-SPECIFIED
:DEGREES
48
root 10.606 20.9426 10.618 1.79805 3.77651 -2.38455
lowerback -8.41671 0.418013 1.13582
upperback 3.61668 0.546978 -1.51003
thorax 8.59042 0.378827 -2.15478
lowerneck 4.24051 -4.22404 -4.26671
upperneck 3.76816 -6.17374 14.4538
head 0.981716 -3.09587 5.04588
rclavicle 8.05078e-015 6.36111e-015
rhumerus -33.0097 7.31961 -94.9412
rradius 27.0729
rwrist 5.46228
rhand -1.29454 -46.93
rfingers 7.12502
rthumb 24.3499 -75.4031
lclavicle 8.05078e-015 6.36111e-015
lhumerus -25.2219 -15.2607 90.8177
lradius 19.9152
lwrist 1.27135
lhand -9.23943 -11.1187
lfingers 7.12502
lthumb 16.7159 18.1816
rfemur -1.17393 5.1768 21.1619
rtibia 12.4924
rfoot -26.9691 -14.3842
rtoes 10.0692
lfemur -14.0795 -4.3239 -12.8243
ltibia 32.2911
lfoot -20.3719 -12.7618
ltoes 0.403351
49
root 10.6066 20.9415 10.6142 1.74121 3.80221 -2.33709
lowerback -8.37209 0.386036 1.09781
upperback 3.6908 0.508532 -1.49861
thorax 8.64226 0.358707 -2.12765
lowerneck 4.15013 -4.19285 -4.45037
upperneck 3.73507 -6.14234 14.6854
head 0.995606 -3.07954 5.14588
rclavicle -1.68967e-015 1.59028e-014
rhumerus -32.9636 7.57065 -95.0205
rradius 27.1635
rwrist 5.5543
rhand -1.40589 -46.9233
rfingers 7.12502
rthumb 24.2431 -75.4107
lclavicle -1.68967e-015 1.59028e-014
lhumerus -25.1585 -15.3809 90.8813
lradius 20.0096
lwrist 1.47046
lhand -9.2039 -11.0409
lfingers 7.12502
lthumb 16.7502 18.2565
rfemur -1.1637 5.09185 21.113
rtibia 12.5519
rfoot -26.8275 -14.5495
rtoes 8.73029
lfemur -14.0286 -4.40157 -12.8604
ltibia 32.2825
lfoot -21.1291 -12.2529
ltoes -5.97929
50
root 10.6069 20.9356 10.61 1.65496 3.81793 -2.33337
lowerback -8.26884 0.436742 1.15387
upperback 3.751 0.572778 -1.52219
thorax 8.65127 0.394565 -2.17457
lowerneck 3.98677 -4.24197 -4.37786
upperneck 3.81526 -6.21614 14.7316
head 1.0527 -3.10551 5.14177
rclavicle -5.86415e-015 -3.97569e-015
rhumerus -32.9128 7.98798 -95.2065
rradius 27.1238
rwrist 5.23396
rhand -1.69021 -46.8696
rfingers 7.12502
rthumb 23.9705 -75.3932
lclavicle -5.86415e-015 -3.97569e-015
lhumerus -25.0998 -16.0247 91.048
lradius 20.0487
lwrist 1.99956
lhand -9.32975 -10.9734
lfingers 7.12502
lthumb 16.629 18.3343
rfemur -1.12255 5.01965 21.1073
rtibia 12.611
rfoot -26.839 -14.5018
rtoes 8.60375
lfemur -13.922 -4.16271 -12.8866
ltibia 32.2627
lfoot -21.0877 -12.3308
ltoes -7.73257
51
root 10.6068 20.9345 10.6081 1.57641 3.8551 -2.32007
lowerback -8.19692 0.471521 1.17183
upperback 3.81021 0.619689 -1.54062
thorax 8.67627 0.419818 -2.1973
lowerneck 3.89047 -4.30297 -4.23567
upperneck 3.84647 -6.29351 14.6382
head 1.07879 -3.13746 5.08524
rclavicle -8.34896e-015 -1.59028e-014
rhumerus -32.8733 8.53776 -95.4401
rradius 27.0936
rwrist 4.80962
rhand -1.72153 -46.8664
rfingers 7.12502
rthumb 23.9405 -75.3938
lclavicle -8.34896e-015 -1.59028e-014
lhumerus -25.023 -16.4816 91.15
lradius 20.0459
lwrist 2.30235
lhand -9.36841 -10.9091
lfingers 7.12502
lthumb 16.5918 18.4017
rfemur -1.04939 4.99431 21.0943
rtibia 12.6373
rfoot -26.9908 -14.3516
rtoes 9.46999
lfemur -13.8363 -3.9661 -12.926
ltibia 32.2526
lfoot -21.162 -12.2026
ltoes -10.3796
52
root 10.6066 20.9397 10.6066 1.53241 3.89454 -2.27262
lowerback -8.1758 0.479154 1.13035
upperback 3.86949 0.635072 -1.53562
thorax 8.72837 0.425767 -2.16649
lowerneck 3.89165 -4.32704 -4.27027
upperneck 3.75691 -6.31785 14.671
head 1.05695 -3.15325 5.10159
rclavicle -4.77083e-015 -1.82882e-014
rhumerus -32.8018 8.88407 -95.5374
rradius 27.1066
rwrist 4.75495
rhand -1.53821 -46.9148
rfingers 7.12502
rthumb 24.1162 -75.4191
lclavicle -4.77083e-015 -1.82882e-014
lhumerus -24.8997 -16.4999 91.1657
lradius 20.0159
lwrist 2.16757
lhand -9.33485 -10.851
lfingers 7.12502
lthumb 16.6241 18.457
rfemur -1.02396 5.01284 21.0426
rtibia 12.6406
rfoot -27.0792 -14.2992
rtoes 10.0238
lfemur -13.8414 -4.07801 -12.9677
ltibia 32.255
lfoot -21.1563 -12.1174
ltoes -9.84816
53
root 10.6063 20.941 10.6036 1.52197 3.90469 -2.2416
lowerback -8.18547 0.506471 1.10928
upperback 3.92475 0.674281 -1.5304
thorax 8.79564 0.444537 -2.14317
lowerneck 3.96614 -4.35193 -4.30561
upperneck 3.53699 -6.32995 14.7581
head 0.985331 -3.17059 5.13828
rclavicle -5.26779e-015 -1.66979e-014
rhumerus -32.7182 9.14604 -95.6156
rradius 27.0858
rwrist 4.74921
rhand -1.62253 -46.9051
rfingers 7.12502
rthumb 24.0354 -75.4201
lclavicle -5.26779e-015 -1.66979e-014
lhumerus -24.7865 -16.519 91.1838
lradius 20.0064
lwrist 2.0494
lhand -9.43037 -10.8995
lfingers 7.12502
lthumb 16.5321 18.4162
rfemur -1.04293 5.00478 21.0081
rtibia 12.5917
rfoot -26.9734 -14.4028
rtoes 9.48059
lfemur -13.8812 -4.31697 -12.9789
ltibia 32.2565
lfoot -21.1206 -12.1612
ltoes -7.12719
54
root 10.6039 20.9381 10.6004 1.4946 3.90412 -2.18751
lowerback -8.17536 0.510218 1.02106
upperback 3.9906 0.690047 -1.52516
thorax 8.86067 0.44799 -2.08567
lowerneck 3.87958 -4.38271 -4.31155
upperneck 3.49639 -6.36787 14.7877
head 0.992832 -3.18755 5.14574
rclavicle -1.09332e-015 -1.11319e-014
rhumerus -32.6423 9.4885 -95.7463
rradius 27.0378
rwrist 4.68416
rhand -2.07549 -46.6472
rfingers 7.12502
rthumb 23.601 -75.2188
lclavicle -1.09332e-015 -1.11319e-014
lhumerus -24.7308 -16.7122 91.2473
lradius 20.021
lwrist 2.33872
lhand -9.71024 -11.1204
lfingers 7.12502
lthumb 16.2627 18.2175
rfemur -1.01816 5.18436 20.9574
rtibia 12.5126
rfoot -27.1477 -14.4268
rtoes 9.48527
lfemur -13.8582 -4.31938 -13.0385
ltibia 32.25
lfoot -20.3508 -12.9269
ltoes 1.90412
